<svg width="209" height="60" viewBox="0 0 209 60" fill="none" xmlns="http://www.w3.org/2000/svg">
<path d="M13.1562 25.6875C14.1875 26 14.2812 25.0312 13.5625 24.6562C11.4688 23.7812 10.5625 22.6875 10.8125 21.375C11.0625 20.0625 11.9375 18.7188 13.4375 17.3438C14.9688 15.9688 16.5625 14.75 18.2812 13.6875C20 12.5938 21.3125 11.875 22.1562 11.4688C26.375 9.5 30.9375 7.9375 35.875 6.8125C40.8438 5.6875 45.5 5.15625 49.9062 5.21875C54.3125 5.25 57.8438 6.0625 60.4688 7.65625C63.0938 9.21875 64.1875 11.7188 63.7188 15.1562C63.2812 18.5938 60.6875 23.125 55.9375 28.7812C50.4688 35.0312 43.8125 40.4375 35.9062 45.0312C28.0312 49.625 19.9375 52.8125 11.6562 54.5938L11.1875 54.6875C9.90625 54.9688 8.375 55.25 6.59375 55.5312C4.84375 55.8125 3.53125 55.7812 2.625 55.5C1.65625 54.875 0.875 55.4375 1.375 56.4375C2.28125 57.9375 8 56.9688 9.5 56.7188C18.3438 55.1875 27.0312 52.0312 35.5625 47.2188C44.125 42.4375 51.3438 36.6562 57.2188 29.9062C62.1875 24.0312 64.9062 19.2188 65.4375 15.4375C65.9688 11.6562 64.9375 8.84375 62.2812 6.9375C59.625 5.03125 56 3.9375 51.4062 3.65625C46.8125 3.375 41.875 3.8125 36.5625 4.90625C31.2812 6 26.25 7.6875 21.4688 9.90625C20.2188 10.5 18.5938 11.4375 16.5938 12.75C14.625 14.0625 12.8438 15.5312 11.2812 17.1875C9.71875 18.8125 8.9375 20.375 8.9375 21.9062C8.96875 23.4375 10.375 24.6875 13.1562 25.6875ZM16.9062 42.25C16.5938 43.3125 17.7188 43.875 18.0312 42.6562C18.875 40.2812 20.625 37.0625 23.25 33C25.9062 28.9375 28.5625 24.9688 31.2812 21.0938C33.3438 18.125 34.9688 15.6875 36.1562 13.8438C36.25 13.75 36.3438 13.5938 36.4688 13.4062C37.0938 12.4688 38.1875 10.9688 37.4688 10.4375C36.5 9.75 32.8438 13.5625 32.0625 14.4062C31.5 15.0625 31.6562 15.25 32.0625 15.3125C32.4688 15.5 32.9688 15.6875 32.0312 17.0625C31.6875 17.5938 31.3125 18.1562 30.8438 18.8125C28.5312 22.1875 25.9062 26.2188 22.9375 30.875C20 35.5312 18 39.3125 16.9062 42.25ZM63.6875 35.0938C64.375 35.4375 64.8125 35.3125 65.0312 34.7812C65.25 34.25 65 33.5625 64.3438 32.7812C64.0938 32.5312 63.75 32.4375 63.4062 32.5938C63.1875 32.6562 62.9062 32.0312 62.8438 31.8438C62.2812 30.2188 62.6875 28.2188 64.0312 25.875C65.4062 23.5312 67.3438 21.0938 69.8125 18.5938C72.2812 16.0938 74.9062 13.8125 77.6875 11.7188C80.4688 9.625 82.9688 8.0625 85.1875 6.96875C87.4375 5.875 89 5.53125 89.875 5.96875C90.3438 6.34375 90.375 7.125 89.9688 8.28125C89.5625 9.4375 89.0625 10.5625 88.4375 11.7188C87.8438 12.875 87.4062 13.625 87.1875 13.9688L75.75 32.5938C75.7188 32.6562 75.6562 32.75 75.5938 32.8438C75.2188 33.4375 74.7188 34.3438 74.0938 35.5312C73.4688 36.7188 72.9688 37.875 72.5938 38.9688C72.25 40.0625 72.2812 40.7812 72.75 41.125C73.625 41.7188 76.5625 38.2812 77.0938 37.6562C77.75 36.875 78.7188 35.6875 80 34.0625C81.6562 31.9688 83.625 29.5625 85.8438 26.8438C88.0625 24.125 90.3125 21.4688 92.5938 18.9062C94.875 16.3438 96.9062 14.2812 98.6875 12.6875C100.469 11.0938 101.719 10.375 102.438 10.5938C103.125 10.9375 103.25 11.9688 102.781 13.6875C102.312 15.4062 101.656 17.375 100.75 19.6562C98.7812 24.9375 96.6562 30.7188 99.125 31.6875C100.062 31.9688 101.531 31.5625 103.531 30.4062C105.531 29.25 107.781 27.7188 110.25 25.8125C112.75 23.9062 115.188 21.9062 117.594 19.875C120 17.8438 122.062 16.0625 123.781 14.5312C125.062 13.375 126.031 12.5312 126.625 12.0312C127.188 11.5625 131.281 8.25 131.938 8.5C132.594 8.8125 128.938 14.75 128.344 15.625C128.312 15.6562 128.312 15.6875 128.281 15.7188C127.594 16.8125 126.469 18.4688 124.906 20.75C123.062 23.4688 120.938 26.5938 118.562 30.1875C116.188 33.7812 113.938 37.3438 111.812 40.9062C109.688 44.4375 108.062 47.5312 106.938 50.125C105.844 52.75 105.594 54.4688 106.219 55.25C106.938 55.875 108.062 55.6562 108.844 55.375C110.031 55.0625 109.5 53.9688 108.625 54.2812C108.562 54.2812 108.5 54.2812 108.469 54.3125C107.719 54.5938 107.125 54.7188 107.219 53.6875C107.375 52.4375 108.281 50.4062 109.875 47.5938C111.469 44.7812 113.438 41.5938 115.75 38.0312C118.094 34.4375 120.438 30.9062 122.781 27.4375C126.438 22.0625 129.094 17.9375 130.812 15.0625C130.844 15 130.875 14.9375 130.938 14.8438C131.281 14.25 131.781 13.375 132.375 12.1875C132.969 11 133.406 9.875 133.656 8.78125C133.938 7.6875 133.75 6.96875 133.094 6.625C131.875 5.96875 128.219 8.625 126.938 9.65625C126.844 9.71875 126.75 9.78125 126.688 9.84375C125.875 10.5 124.312 11.8125 122.031 13.7812C119.5 16 116.625 18.4375 113.438 21.0938C110.281 23.75 107.375 26.0312 104.781 27.9375C102.188 29.8125 100.469 30.6562 99.6562 30.5C99.3438 30.3125 99.375 29.5938 99.7188 28.3125C100.094 27.0312 100.625 25.4375 101.281 23.5625C103.344 17.6875 106.062 10.1562 103.062 9C101.906 8.6875 100.156 9.53125 97.7812 11.5625C95.4375 13.5625 92.875 16.0938 90.125 19.1562C87.4062 22.1875 84.875 25.125 82.5938 27.9375C80.3125 30.75 78.6875 32.8125 77.6875 34.125C77.5312 34.3438 77.3438 34.5312 77.1875 34.75C74.3125 38.5312 73.9062 38.7812 76 35.5C76.3438 34.9062 76.75 34.25 77.2188 33.4688L88.6562 14.8438C89.0625 14.1875 89.625 13.1875 90.2812 11.875C90.9688 10.5625 91.4062 9.25 91.625 7.9375C91.8438 6.625 91.5 5.65625 90.5938 5C89.4062 4.375 87.5625 4.59375 85.0625 5.65625C82.5625 6.6875 79.8125 8.3125 76.8125 10.4688C73.8438 12.625 71.0312 15.0312 68.4062 17.6875C65.7812 20.3438 63.75 22.9688 62.3125 25.5625C60.9062 28.1562 60.5 30.4062 61.1562 32.3438C61.6562 33.5625 62.5 34.5 63.6875 35.0938ZM129.812 41.5625C130.406 40.9375 131.125 39.7812 131.531 39.0312C131.781 38.5312 132.031 38.5625 132.312 38.8125C132.719 39.0938 133.5 39.4375 135.094 38.8125C136.594 38.125 136.344 36.9375 135.531 37.6875C134.625 38.5312 132.5 38.5938 132.375 36.6875C132.312 34.0625 129.938 33.4688 129.469 34.4375C129.125 35.4375 129.844 36.8438 130.594 37.5938C130.812 37.75 130.781 37.875 130.656 38.0312C130.625 38.0938 130.562 38.1875 130.5 38.2812C129.844 39.625 128.656 41.2188 127.812 41.7188C125.219 43.1562 122.969 40.0938 129.062 33.0625C129.188 32.9062 129.344 32.9062 129.5 32.9062C129.844 32.9375 130.344 32.8438 131.219 31.9375C131.688 30.7812 131.062 30.375 130.094 30.7188C129.5 30.875 128.719 31.5 127.75 32.5625C125.188 35.5312 123.875 37.9688 123.844 39.8125C123.812 41.6562 124.406 42.75 125.688 43.125C126.969 43.5 128.344 42.9688 129.812 41.5625ZM133.281 41.1875C133.031 42.0625 133.75 42.5 134.594 42.125C135.719 41.5312 137.438 40.0938 139.219 38.5C141.25 36.6562 143.156 35.0625 144.031 34.9688C143.75 36.75 143.906 38.0312 144.5 38.7812C145.094 39.5 146.344 39.2812 148.219 38.0938C148.781 37.7188 148.719 36.7812 147.875 37.3125C145.031 39.2188 145.094 37.875 145.281 36.2812C145.375 35.5625 145.375 34.9375 145.281 34.375C145.188 33.7812 144.75 33.5 144 33.4688C143.531 33.5 142.719 33.9375 141.594 34.7188C140.5 35.5 139.375 36.3438 138.25 37.25C137.156 38.1562 136.344 38.8438 135.844 39.3125C136.562 38.0312 137.406 36.5938 138.344 35C139.312 33.4062 140.156 31.9688 140.938 30.7188C141.031 30.5312 141.094 30.3438 141.094 30.1562V30.0938V30C141 29.7188 140.812 29.5 140.5 29.4062C140.344 29.3438 140.188 29.3438 140 29.4062L139.938 29.4375C139.688 29.5 139.281 29.8125 138.75 30.4062C138.5 30.6875 138.5 31.0938 138.75 31.4375C138.438 31.9688 138.062 32.5625 137.625 33.2812C136.844 34.625 136.031 36 135.188 37.4688C134.344 38.9375 133.688 40.1562 133.281 41.1875ZM160.844 32.7812C160.938 32.6875 161.031 32.5625 161.125 32.4688C162.156 31.4375 162.438 31.1562 161.562 32.5312C159.875 35.4062 157.719 39.1562 155.094 43.75C153.312 46.8438 151.844 49.4375 150.656 51.5C150.094 52.5312 151 52.6562 151.438 51.9688C151.531 51.875 152.281 50.6562 153.688 48.375C155.125 46.0938 156.906 43.25 159 39.8438C161.125 36.4375 163.25 32.9688 165.375 29.4375C166 28.375 166.531 27.5625 167 26.9688C167.469 26.375 168.125 25.6562 168.969 24.8125C171.031 22.9062 173.219 20.7188 175.5 18.1875C177.812 15.6562 179.969 12.9062 182 9.96875C183.281 8.0625 183.969 6.75 184.062 6.09375C183.875 4.53125 181.688 4.96875 180.594 5.90625C179.25 7 177.656 8.5625 175.844 10.5938C174.031 12.625 172.406 14.7188 171 16.9062C169.969 18.5 168.562 20.7812 166.781 23.75C166.188 24.7188 165.656 25.5312 165.125 26.1562C164.594 26.7812 163.938 27.4688 163.125 28.2188C162.469 28.875 162.344 28.75 162 28.5625C161.844 28.4375 161.562 28.3125 161.156 28.1875C159.594 27.8438 157.844 28.25 155.938 29.375C154.031 30.5 152.188 31.9688 150.469 33.75C148.75 35.5312 147.375 37.2812 146.344 38.9688C145.312 40.6562 144.906 41.875 145.125 42.6562C145.5 43.5 146.344 43.6875 147.625 43.1562C148.906 42.6562 150.375 41.7812 152.062 40.5C153.75 39.2188 155.375 37.8438 156.969 36.4375C158.562 35 159.844 33.7812 160.844 32.7812ZM174.094 17.3438C173.75 17.6875 173.438 18.0312 173.094 18.4062C171.031 20.625 169.062 22.7188 171.875 18.2188C172.781 16.8125 173.906 15.3125 175.219 13.6562C176.562 12 177.781 10.5625 178.875 9.40625C179.875 8.40625 183.125 5.5625 180.719 9.21875C178.688 12.1875 176.469 14.875 174.094 17.3438ZM160.938 29.4375C161.531 29.5625 161.531 29.7812 161.125 30.1562C158.344 32.8125 155.688 35.2188 153.094 37.375C150.5 39.5312 148.469 41 146.969 41.8438C145.969 42.375 146.219 41.6875 146.844 40.5625C147.531 39.3438 148.719 37.8438 150.406 36.0312C152.125 34.1875 153.938 32.5938 155.875 31.25C157.812 29.875 159.5 29.2812 160.938 29.4375ZM182.875 36.75C182.031 37.2188 181.031 37.625 179.875 37.9688C178.719 38.3125 177.844 38.2812 177.219 37.875C176.625 37.4688 176.719 36.4375 177.5 34.7188C177.625 34.4688 177.625 34.2188 177.469 33.9688C177.219 33.5938 176.781 33.5312 176.406 33.75C172.844 36.2188 170.281 37.875 168.719 38.7812C167.156 39.6875 166.344 40.0312 166.25 39.8125C166.188 39.5938 166.656 39.0312 167.625 38.0938C168.594 37.125 169.812 36.125 171.219 35.0625C172.625 34 173.969 33.2188 175.25 32.7188C176.531 32.2188 177.406 32.3125 177.938 33.0312C177.969 33.125 177.906 33.1875 177.875 33.2812C177.844 33.375 177.781 33.4375 177.781 33.5312C178 33.9375 178.625 34.3125 179.031 34.1875C179.438 34.0625 179.75 33.6875 179.625 33.2812C178.938 31.6875 177.75 31 176.062 31.2812C174.375 31.5312 172.594 32.2812 170.75 33.5625C168.906 34.8438 167.406 36.1875 166.25 37.5938C165.094 39 164.656 40.0312 165 40.6875C165.281 41.1562 166.156 41.1562 167.656 40.625C169.188 40.0938 171.562 38.7812 174.781 36.6875C175.375 36.3125 175.406 36.2812 175.375 36.875V37.0312C175.406 38.4375 175.938 39.2188 176.906 39.4062C177.875 39.5625 179 39.4375 180.219 39C181.469 38.5312 182.5 38.0625 183.281 37.5938C184.281 36.875 184 36.1562 182.875 36.75ZM170.5 59.3438C171.562 59.875 172.625 57.6875 172.406 57.6875L184.812 37.4688C185.375 36.5312 185.469 36.4688 185.781 36.2812C185.906 36.2188 186.156 36.0625 186.5 35.8125C188.344 34.2188 191 31.125 194.438 26.4688C197.906 21.8125 201.062 17.1875 203.906 12.5938C203.906 12.5625 203.906 12.5625 203.938 12.5312C204.188 12.125 204.688 11.25 205.469 9.90625C206.25 8.53125 207 7.0625 207.688 5.53125C208.406 3.96875 208.75 2.6875 208.75 1.71875C208.781 0.71875 208.156 0.40625 206.875 0.78125C206.062 1.15625 204.531 2.9375 202.312 6.125C200.094 9.28125 197.656 13.0312 194.969 17.3125C192.281 21.5938 189.844 25.5625 187.656 29.25C185.469 32.9062 184.031 35.4062 183.312 36.75C180.594 41.125 178.375 44.7188 176.625 47.5C170.469 57.5 169.531 58.9062 170.5 59.3438ZM188.375 31.7188C189.969 29.125 191.562 26.4375 193.219 23.6562C197.094 17.0312 201.156 10.3125 205.312 4.5625C208.281 0.6875 207.594 3.21875 202.469 11.7188C200.312 15.1875 197.969 18.75 195.438 22.4375C192.906 26.125 190.594 29.2812 188.531 31.9062C187.781 32.8125 187.781 32.625 188.375 31.7188Z" fill="white"/>
</svg>
